  <!-- <svg xmlns="http://www.w3.org/2000/svg" viewBox="0 0 50 6000">
      <path fill="#1390af" fill-opacity="0.7" d="M0,192L60,208C120,224,240,256,360,245.3C480,235,600,181,720,170.7C840,160,960,192,1080,213.3C1200,235,1320,245,1380,250.7L1440,256L1440,320L1380,320C1320,320,1200,320,1080,320C960,320,840,320,720,320C600,320,480,320,360,320C240,320,120,320,60,320L0,320Z"></path>
        <path fill="#1b8db5" fill-opacity="0.5" d="M0,128L60,144C120,160,240,192,360,197.3C480,203,600,181,720,160C840,139,960,117,1080,106.7C1200,96,1320,96,1380,96L1440,96L1440,320L1380,320C1320,320,1200,320,1080,320C960,320,840,320,720,320C600,320,480,320,360,320C240,320,120,320,60,320L0,320Z"></path>

</svg> -->


 <svg xmlns="http://www.w3.org/2000/svg" viewBox="0 0 1780 200">
      <path fill="#1390af" fill-opacity="1" d="M0,192L60,208C120,224,240,256,360,245.3C480,235,600,181,720,170.7C840,160,960,192,1080,213.3C1200,235,1320,245,1380,250.7L1440,256L1440,320L1380,320C1320,320,1200,320,1080,320C960,320,840,320,720,320C600,320,480,320,360,320C240,320,120,320,60,320L0,320Z"></path>
        <path fill="#1b8db5" fill-opacity="0.7" d="M0,128L60,144C120,160,240,192,360,197.3C480,203,600,181,720,160C840,139,960,117,1080,106.7C1200,96,1320,96,1380,96L1440,96L1440,320L1380,320C1320,320,1200,320,1080,320C960,320,840,320,720,320C600,320,480,320,360,320C240,320,120,320,60,320L0,320Z"></path>
      <path fill="#229ac0" fill-opacity="0.5" d="M0,64L60,80C120,96,240,128,360,138.7C480,149,600,117,720,106.7C840,96,960,128,1080,149.3C1200,171,1320,181,1380,186.7L1440,192L1440,320L1380,320C1320,320,1200,320,1080,320C960,320,840,320,720,320C600,320,480,320,360,320C240,320,120,320,60,320L0,320Z"></path>
        <path fill="#2aa9cb" fill-opacity="0.3" d="M0,32L60,48C120,64,240,96,360,106.7C480,117,600,85,720,74.7C840,64,960,96,1080,117.3C1200,139,1320,149,1380,154.7L1440,160L1440,320L1380,320C1320,320,1200,320,1080,320C960,320,840,320,720,320C600,320,480,320,360,320C240,320,120,320,60,320L0,320Z"></path>
      </svg>